<?xml version="1.0" encoding="UTF-8"?>
<svg version="1.1" xmlns="http://www.w3.org/2000/svg" width="256" height="256">
<path d="M0 0 C1.21498837 -0.00679667 1.21498837 -0.00679667 2.45452195 -0.01373065 C5.16035769 -0.02635968 7.86599175 -0.02475523 10.57185364 -0.02310181 C12.51545978 -0.02908809 14.45906354 -0.03589387 16.40266418 -0.04345703 C21.67768536 -0.06111649 26.95264163 -0.06581246 32.2276895 -0.0670886 C35.52608078 -0.06851107 38.8244556 -0.07278254 42.12284279 -0.07808304 C53.63792084 -0.09658486 65.15295262 -0.10475367 76.66804504 -0.10317993 C87.3880342 -0.10197928 98.10782176 -0.12306626 108.82775992 -0.15466726 C118.04157428 -0.18085677 127.25532293 -0.19154607 136.46917421 -0.19026911 C141.96754023 -0.18976016 147.46572718 -0.1954061 152.96405602 -0.21662521 C158.13927357 -0.23605195 163.31414207 -0.23610167 168.48937225 -0.22159195 C170.38274205 -0.21950809 172.27613395 -0.22417938 174.16946602 -0.23631287 C187.23857951 -0.3146034 198.22823315 0.39953942 208.72346497 9.14242554 C216.35671176 16.96255032 220.10666959 25.64776112 220.07183838 36.50097656 C220.07707506 37.31434679 220.08231174 38.12771703 220.0877071 38.96573484 C220.10267264 41.68304781 220.1034115 44.40017189 220.1040802 47.11752319 C220.11170415 49.0693595 220.12013205 51.02119281 220.12930298 52.97302246 C220.15123514 58.27083041 220.1600455 63.56858063 220.16512942 68.86642885 C220.16877535 72.17956887 220.17501674 75.49269383 220.18213081 78.80582809 C220.20662356 90.37392591 220.21967625 101.94197891 220.22322083 113.51010132 C220.22685307 124.27668971 220.25672672 135.0429925 220.29862541 145.80949366 C220.33337512 155.06493718 220.3487701 164.32028629 220.34946686 173.57579458 C220.35025825 179.09827316 220.35893335 184.62046093 220.38746452 190.14287186 C220.41372432 195.34194754 220.41580614 200.54049297 220.39980888 205.73960495 C220.39800053 207.64062409 220.4046293 209.54167427 220.42062759 211.44262695 C220.53044769 225.34703084 219.20821984 236.74024898 209.11799622 247.29086304 C201.33044026 253.924707 193.85560305 256.4170428 183.83587646 256.41459656 C182.62345137 256.42011159 182.62345137 256.42011159 181.38653284 256.42573804 C178.67453699 256.43676247 175.96257947 256.44061664 173.25056458 256.44442749 C171.30725483 256.45069317 169.36394628 256.45734007 167.42063904 256.46434021 C161.03461032 256.48537389 154.64858139 256.49574326 148.26252747 256.50570679 C146.06244456 256.50975487 143.86236178 256.51387181 141.66227913 256.51805687 C131.32367017 256.53710852 120.98506835 256.55133854 110.64644521 256.55966884 C98.72231459 256.56943578 86.79836986 256.59574133 74.87430471 256.63616973 C65.65204619 256.66636168 56.42984087 256.68114072 47.2075339 256.68444985 C41.70241933 256.68679718 36.19750337 256.6957163 30.69244194 256.72091103 C25.50905876 256.74424995 20.32600412 256.74840152 15.14258194 256.73814964 C13.24598279 256.73765556 11.34936716 256.74393823 9.45281792 256.75770569 C-3.6296177 256.84731654 -14.62110028 256.14511265 -25.12809753 247.39242554 C-32.76134433 239.57230076 -36.51130215 230.88708996 -36.47647095 220.03387451 C-36.48170763 219.22050428 -36.4869443 218.40713405 -36.49233967 217.56911623 C-36.50730521 214.85180327 -36.50804407 212.13467918 -36.50871277 209.41732788 C-36.51633672 207.46549157 -36.52476462 205.51365827 -36.53393555 203.56182861 C-36.55586771 198.26402067 -36.56467807 192.96627044 -36.56976199 187.66842222 C-36.57340792 184.35528221 -36.57964931 181.04215725 -36.58676338 177.72902298 C-36.61125612 166.16092517 -36.62430882 154.59287217 -36.62785339 143.02474976 C-36.63148564 132.25816137 -36.66135929 121.49185857 -36.70325798 110.72535741 C-36.73800769 101.46991389 -36.75340267 92.21456478 -36.75409943 82.9590565 C-36.75489082 77.43657791 -36.76356592 71.91439014 -36.79209709 66.39197922 C-36.81835689 61.19290354 -36.82043871 55.99435811 -36.80444145 50.79524612 C-36.8026331 48.89422698 -36.80926187 46.9931768 -36.82526016 45.09222412 C-36.93044373 31.77485465 -35.92122919 20.17862247 -26.22575378 10.01742554 C-18.42132969 3.26765335 -10.30010893 -0.04257408 0 0 Z " fill="#491C84" transform="translate(36.20231628417969,-0.267425537109375)"/>
<path d="M0 0 C1.06004242 -0.00365067 2.12008484 -0.00730133 3.21224976 -0.01106262 C6.68056778 -0.01910117 10.14840873 -0.00561544 13.61669922 0.0090332 C16.04564412 0.00955254 18.47458945 0.00903201 20.90353394 0.00752258 C25.97872238 0.007612 31.05375098 0.01798105 36.12890625 0.03613281 C42.61949914 0.05884286 49.10985931 0.05935629 55.60048103 0.05261517 C60.61060641 0.04926719 65.62067915 0.05592052 70.63079453 0.0657444 C73.02368774 0.06958055 75.41658682 0.07075122 77.80948257 0.06915855 C81.15695526 0.06878591 84.50413415 0.08146329 87.8515625 0.09765625 C89.31997589 0.09394012 89.31997589 0.09394012 90.8180542 0.09014893 C100.65096219 0.16570407 110.45943012 1.50570115 117.96826172 8.3527832 C125.68886465 16.53831296 127.93164518 24.84946552 127.90991211 36.02026367 C127.90983658 37.32115936 127.90976105 38.62205505 127.90968323 39.96237183 C127.90457773 41.36724893 127.89936176 42.77212564 127.89404297 44.17700195 C127.89217595 45.6257421 127.89075339 47.07448287 127.88975525 48.52322388 C127.88595245 52.32077808 127.87614145 56.11829354 127.86505127 59.91583252 C127.85298188 64.4805725 127.84842425 69.0453255 127.84259796 73.6100769 C127.83292835 80.53084964 127.81375621 87.45153748 127.79638672 94.37231445 C113.93638672 94.37231445 100.07638672 94.37231445 85.79638672 94.37231445 C85.79638672 106.25231445 85.79638672 118.13231445 85.79638672 130.37231445 C58.40638672 130.37231445 31.01638672 130.37231445 2.79638672 130.37231445 C2.79638672 118.82231445 2.79638672 107.27231445 2.79638672 95.37231445 C-10.73361328 95.37231445 -24.26361328 95.37231445 -38.20361328 95.37231445 C-38.32393971 78.80291966 -38.32393971 78.80291966 -38.35009766 71.6887207 C-38.3679658 66.85219329 -38.38900358 62.01583779 -38.42993164 57.17944336 C-38.4627535 53.27609764 -38.4805139 49.37293652 -38.48824501 45.46946335 C-38.49374788 43.98725864 -38.50449261 42.50506295 -38.52080345 41.02293777 C-38.65250992 28.54828472 -37.4371733 18.2019783 -29.20361328 8.37231445 C-21.55257418 0.68292428 -10.28254654 -0.08062118 0 0 Z " fill="#EDE0B6" transform="translate(83.20361328125,62.627685546875)"/>
<path d="M0 0 C7.2419261 4.07358343 12.62868156 9.96386528 15 18 C16.08304117 26.4958563 14.77377198 32.8786863 10 40 C4.86811269 46.05299529 -1.27661486 50.13841514 -9.1796875 51.328125 C-16.78975589 51.86301799 -22.76419386 49.23818859 -29 45 C-31.51181513 42.55727212 -33.29290864 40.04880526 -35 37 C-35.61875 35.9275 -36.2375 34.855 -36.875 33.75 C-39.0388856 26.53704799 -39.12972339 19.62364374 -36 12.6875 C-28.77562541 -0.00617512 -13.81287785 -6.57756088 0 0 Z " fill="#4C2087" transform="translate(178,95)"/>
<path d="M0 0 C5.52602636 4.54826027 9.98690499 9.63622716 11.96484375 16.6171875 C12.88851843 26.14014335 11.20886853 33.2616495 5.4921875 40.9765625 C1.30351204 45.47590698 -4.20626273 48.41248702 -10.328125 48.85546875 C-19.59731021 49.0321132 -25.62463534 48.42627374 -32.78515625 42.2421875 C-38.87321729 35.13944962 -41.68125259 28.35900366 -41.40625 18.9765625 C-40.21885581 11.4272352 -35.95136353 5.65648729 -30.05078125 1.0234375 C-21.2484136 -5.11774923 -9.20040136 -6.06506906 0 0 Z " fill="#4C1F87" transform="translate(104.03515625,96.3828125)"/>
</svg>
